<mxfile host="app.diagrams.net" modified="2023-09-06T09:52:30.785Z" agent="Mozilla/5.0 (Macintosh; Intel Mac OS X 10_15_7) AppleWebKit/537.36 (KHTML, like Gecko) Chrome/116.0.0.0 Safari/537.36" etag="AhFpPaVsP_AOzefGgei_" version="21.7.2" type="github">
  <diagram name="第 1 页" id="QVIKFMMg18xOAisxXLAs">
    <mxGraphModel dx="954" dy="-190" grid="0" gridSize="10" guides="1" tooltips="1" connect="1" arrows="1" fold="1" page="0" pageScale="1" pageWidth="827" pageHeight="1169" math="0" shadow="0">
      <root>
        <mxCell id="0" />
        <mxCell id="1" parent="0" />
        <mxCell id="yRf3vOdz1kJbRVKW5ZLv-19" value="云控前端" style="rounded=0;whiteSpace=wrap;html=1;" vertex="1" parent="1">
          <mxGeometry x="368" y="1053" width="120" height="60" as="geometry" />
        </mxCell>
        <mxCell id="yRf3vOdz1kJbRVKW5ZLv-24" value="" style="shape=actor;whiteSpace=wrap;html=1;" vertex="1" parent="1">
          <mxGeometry x="412" y="1212" width="40" height="60" as="geometry" />
        </mxCell>
        <mxCell id="yRf3vOdz1kJbRVKW5ZLv-35" style="edgeStyle=orthogonalEdgeStyle;rounded=0;orthogonalLoop=1;jettySize=auto;html=1;exitX=1;exitY=0;exitDx=0;exitDy=60.75;exitPerimeter=0;" edge="1" parent="1">
          <mxGeometry relative="1" as="geometry">
            <mxPoint x="370" y="947.25" as="targetPoint" />
            <mxPoint x="228" y="947" as="sourcePoint" />
            <Array as="points">
              <mxPoint x="304" y="947.25" />
              <mxPoint x="304" y="948.25" />
            </Array>
          </mxGeometry>
        </mxCell>
        <mxCell id="yRf3vOdz1kJbRVKW5ZLv-28" value="Redis" style="shape=cylinder3;whiteSpace=wrap;html=1;boundedLbl=1;backgroundOutline=1;size=15;" vertex="1" parent="1">
          <mxGeometry x="150" y="884" width="80" height="91" as="geometry" />
        </mxCell>
        <mxCell id="yRf3vOdz1kJbRVKW5ZLv-29" value="云控后端" style="rounded=0;whiteSpace=wrap;html=1;" vertex="1" parent="1">
          <mxGeometry x="368" y="903" width="120" height="60" as="geometry" />
        </mxCell>
        <mxCell id="yRf3vOdz1kJbRVKW5ZLv-30" value="车辆" style="rounded=0;whiteSpace=wrap;html=1;" vertex="1" parent="1">
          <mxGeometry x="637" y="906" width="120" height="60" as="geometry" />
        </mxCell>
        <mxCell id="yRf3vOdz1kJbRVKW5ZLv-34" value="" style="endArrow=classic;html=1;rounded=0;entryX=0.008;entryY=0.883;entryDx=0;entryDy=0;entryPerimeter=0;" edge="1" parent="1">
          <mxGeometry width="50" height="50" relative="1" as="geometry">
            <mxPoint x="488" y="943" as="sourcePoint" />
            <mxPoint x="638" y="944.5" as="targetPoint" />
          </mxGeometry>
        </mxCell>
        <mxCell id="yRf3vOdz1kJbRVKW5ZLv-36" value="" style="endArrow=classic;html=1;rounded=0;exitX=0.35;exitY=1;exitDx=0;exitDy=0;exitPerimeter=0;" edge="1" parent="1" source="yRf3vOdz1kJbRVKW5ZLv-29">
          <mxGeometry width="50" height="50" relative="1" as="geometry">
            <mxPoint x="413" y="963" as="sourcePoint" />
            <mxPoint x="410" y="1052" as="targetPoint" />
          </mxGeometry>
        </mxCell>
        <mxCell id="yRf3vOdz1kJbRVKW5ZLv-37" value="" style="endArrow=classic;html=1;rounded=0;" edge="1" parent="1">
          <mxGeometry width="50" height="50" relative="1" as="geometry">
            <mxPoint x="410" y="1113" as="sourcePoint" />
            <mxPoint x="410" y="1197" as="targetPoint" />
          </mxGeometry>
        </mxCell>
        <mxCell id="yRf3vOdz1kJbRVKW5ZLv-38" value="" style="endArrow=classic;html=1;rounded=0;" edge="1" parent="1">
          <mxGeometry width="50" height="50" relative="1" as="geometry">
            <mxPoint x="451" y="1198" as="sourcePoint" />
            <mxPoint x="451" y="1114" as="targetPoint" />
          </mxGeometry>
        </mxCell>
        <mxCell id="yRf3vOdz1kJbRVKW5ZLv-39" value="" style="endArrow=classic;html=1;rounded=0;" edge="1" parent="1">
          <mxGeometry width="50" height="50" relative="1" as="geometry">
            <mxPoint x="448" y="1051" as="sourcePoint" />
            <mxPoint x="448" y="963" as="targetPoint" />
          </mxGeometry>
        </mxCell>
        <mxCell id="yRf3vOdz1kJbRVKW5ZLv-40" value="" style="endArrow=classic;html=1;rounded=0;" edge="1" parent="1">
          <mxGeometry width="50" height="50" relative="1" as="geometry">
            <mxPoint x="637" y="923" as="sourcePoint" />
            <mxPoint x="490" y="923" as="targetPoint" />
          </mxGeometry>
        </mxCell>
        <mxCell id="yRf3vOdz1kJbRVKW5ZLv-41" value="" style="endArrow=classic;html=1;rounded=0;" edge="1" parent="1">
          <mxGeometry width="50" height="50" relative="1" as="geometry">
            <mxPoint x="367" y="918" as="sourcePoint" />
            <mxPoint x="230" y="918" as="targetPoint" />
          </mxGeometry>
        </mxCell>
        <mxCell id="yRf3vOdz1kJbRVKW5ZLv-42" value="控制车辆前进、刹车" style="text;strokeColor=none;align=center;fillColor=none;html=1;verticalAlign=middle;whiteSpace=wrap;rounded=0;" vertex="1" parent="1">
          <mxGeometry x="440" y="1144" width="149" height="20" as="geometry" />
        </mxCell>
        <mxCell id="yRf3vOdz1kJbRVKW5ZLv-43" value="下发人车交互指令" style="text;strokeColor=none;align=center;fillColor=none;html=1;verticalAlign=middle;whiteSpace=wrap;rounded=0;" vertex="1" parent="1">
          <mxGeometry x="429" y="998" width="149" height="20" as="geometry" />
        </mxCell>
        <mxCell id="yRf3vOdz1kJbRVKW5ZLv-44" value="反馈人车交互指令执行状态" style="text;strokeColor=none;align=center;fillColor=none;html=1;verticalAlign=middle;whiteSpace=wrap;rounded=0;" vertex="1" parent="1">
          <mxGeometry x="493" y="886" width="149" height="20" as="geometry" />
        </mxCell>
        <mxCell id="yRf3vOdz1kJbRVKW5ZLv-45" value="转发人车交互指令执行状态" style="text;strokeColor=none;align=center;fillColor=none;html=1;verticalAlign=middle;whiteSpace=wrap;rounded=0;" vertex="1" parent="1">
          <mxGeometry x="252" y="998" width="149" height="20" as="geometry" />
        </mxCell>
        <mxCell id="yRf3vOdz1kJbRVKW5ZLv-46" value="显示人车交互指令状态" style="text;strokeColor=none;align=center;fillColor=none;html=1;verticalAlign=middle;whiteSpace=wrap;rounded=0;" vertex="1" parent="1">
          <mxGeometry x="267" y="1141" width="149" height="20" as="geometry" />
        </mxCell>
        <mxCell id="yRf3vOdz1kJbRVKW5ZLv-47" value="下发人车交互指令" style="text;strokeColor=none;align=center;fillColor=none;html=1;verticalAlign=middle;whiteSpace=wrap;rounded=0;" vertex="1" parent="1">
          <mxGeometry x="488" y="946" width="149" height="20" as="geometry" />
        </mxCell>
        <mxCell id="yRf3vOdz1kJbRVKW5ZLv-48" style="edgeStyle=orthogonalEdgeStyle;rounded=0;orthogonalLoop=1;jettySize=auto;html=1;exitX=0.5;exitY=1;exitDx=0;exitDy=0;entryX=1;entryY=0.5;entryDx=0;entryDy=0;" edge="1" parent="1" source="yRf3vOdz1kJbRVKW5ZLv-30" target="yRf3vOdz1kJbRVKW5ZLv-30">
          <mxGeometry relative="1" as="geometry" />
        </mxCell>
        <mxCell id="yRf3vOdz1kJbRVKW5ZLv-49" value="执行人车交互指令" style="text;strokeColor=none;align=center;fillColor=none;html=1;verticalAlign=middle;whiteSpace=wrap;rounded=0;" vertex="1" parent="1">
          <mxGeometry x="712" y="991" width="149" height="20" as="geometry" />
        </mxCell>
        <mxCell id="yRf3vOdz1kJbRVKW5ZLv-50" value="存储人车交互指令" style="text;strokeColor=none;align=center;fillColor=none;html=1;verticalAlign=middle;whiteSpace=wrap;rounded=0;" vertex="1" parent="1">
          <mxGeometry x="227" y="923" width="149" height="20" as="geometry" />
        </mxCell>
      </root>
    </mxGraphModel>
  </diagram>
</mxfile>
